<svg width="417" height="158" viewBox="0 0 417 158" fill="none" xmlns="http://www.w3.org/2000/svg">
<path d="M13.4159 140.208C16.5267 140.208 18.995 139.314 20.8204 137.525C22.6451 135.737 23.5579 133.239 23.5579 130.029C23.5579 126.82 22.6451 124.322 20.8204 122.533C18.995 120.745 16.5267 119.851 13.4159 119.851H8.56547V140.208H13.4159ZM5.47876 116.874H13.4159C16.1105 116.874 18.4622 117.432 20.4713 118.546C22.4796 119.661 24.0229 121.21 25.1013 123.194C26.179 125.179 26.7181 127.457 26.7181 130.029C26.7181 132.601 26.179 134.879 25.1013 136.864C24.0229 138.848 22.4796 140.398 20.4713 141.512C18.4622 142.627 16.1105 143.184 13.4159 143.184H5.47876V116.874Z" fill="#676C72"/>
<path d="M43.8782 131.83C43.8287 131.046 43.6083 130.262 43.2167 129.478C42.8246 128.694 42.2063 128.033 41.361 127.494C40.5158 126.955 39.4559 126.686 38.1826 126.686C36.7126 126.686 35.4691 127.157 34.4529 128.1C33.4359 129.043 32.7681 130.287 32.4501 131.83H43.8782ZM33.6627 142.486C32.2418 141.629 31.133 140.447 30.3373 138.94C29.5407 137.433 29.1429 135.737 29.1429 133.851C29.1429 132.038 29.5161 130.373 30.2636 128.854C31.0106 127.335 32.0699 126.122 33.4423 125.216C34.814 124.31 36.4061 123.856 38.2192 123.856C40.0566 123.856 41.6487 124.267 42.9963 125.087C44.3432 125.908 45.3784 127.041 46.1013 128.486C46.8236 129.932 47.1854 131.585 47.1854 133.447C47.1854 133.814 47.1485 134.133 47.0751 134.402H32.2662C32.3398 135.823 32.6827 137.023 33.2952 138.003C33.9073 138.983 34.6853 139.718 35.6286 140.208C36.5714 140.698 37.5579 140.943 38.5867 140.943C40.9872 140.943 42.8367 139.816 44.1354 137.562L46.7811 138.848C45.9726 140.368 44.8761 141.567 43.4923 142.449C42.1079 143.331 40.4362 143.772 38.4764 143.772C36.688 143.772 35.0831 143.343 33.6627 142.486Z" fill="#676C72"/>
<path d="M48.3976 124.444H51.7416L57.5475 139.51H57.6209L63.5003 124.444H66.7707L59.1275 143.184H55.9673L48.3976 124.444Z" fill="#676C72"/>
<path d="M82.5347 131.83C82.4853 131.046 82.2649 130.262 81.8733 129.478C81.4811 128.694 80.8627 128.033 80.0177 127.494C79.1724 126.955 78.1125 126.686 76.839 126.686C75.3693 126.686 74.1256 127.157 73.1093 128.1C72.0925 129.043 71.4247 130.287 71.1067 131.83H82.5347ZM72.3193 142.486C70.8982 141.629 69.7896 140.447 68.9937 138.94C68.1973 137.433 67.7996 135.737 67.7996 133.851C67.7996 132.038 68.1727 130.373 68.9202 128.854C69.6673 127.335 70.7265 126.122 72.0987 125.216C73.4704 124.31 75.0627 123.856 76.8758 123.856C78.7131 123.856 80.3053 124.267 81.6528 125.087C82.9999 125.908 84.035 127.041 84.7578 128.486C85.4802 129.932 85.8418 131.585 85.8418 133.447C85.8418 133.814 85.8052 134.133 85.7315 134.402H70.9228C70.9965 135.823 71.3392 137.023 71.9518 138.003C72.5639 138.983 73.3419 139.718 74.2852 140.208C75.228 140.698 76.2143 140.943 77.2433 140.943C79.6438 140.943 81.4933 139.816 82.7919 137.562L85.4377 138.848C84.6293 140.368 83.5327 141.567 82.1489 142.449C80.7645 143.331 79.0926 143.772 77.133 143.772C75.3445 143.772 73.7397 143.343 72.3193 142.486Z" fill="#676C72"/>
<path d="M89.4792 116.874H92.6027V143.184H89.4792V116.874Z" fill="#676C72"/>
<path d="M108.9 140.079C109.892 139.504 110.688 138.677 111.288 137.599C111.888 136.521 112.189 135.26 112.189 133.814C112.189 132.369 111.888 131.108 111.288 130.029C110.688 128.952 109.892 128.125 108.9 127.549C107.908 126.974 106.836 126.686 105.685 126.686C104.533 126.686 103.455 126.974 102.451 127.549C101.446 128.125 100.644 128.952 100.044 130.029C99.4436 131.108 99.144 132.369 99.144 133.814C99.144 135.26 99.4436 136.521 100.044 137.599C100.644 138.677 101.446 139.504 102.451 140.079C103.455 140.655 104.533 140.943 105.685 140.943C106.836 140.943 107.908 140.655 108.9 140.079ZM100.724 142.449C99.2541 141.567 98.1087 140.368 97.2882 138.848C96.4671 137.33 96.0573 135.651 96.0573 133.814C96.0573 131.977 96.4671 130.299 97.2882 128.78C98.1087 127.261 99.2541 126.061 100.724 125.179C102.194 124.297 103.847 123.856 105.685 123.856C107.522 123.856 109.176 124.297 110.646 125.179C112.115 126.061 113.26 127.261 114.081 128.78C114.902 130.299 115.312 131.977 115.312 133.814C115.312 135.651 114.902 137.33 114.081 138.848C113.26 140.368 112.115 141.567 110.646 142.449C109.176 143.331 107.522 143.772 105.685 143.772C103.847 143.772 102.194 143.331 100.724 142.449Z" fill="#676C72"/>
<path d="M130.819 140.061C131.775 139.473 132.54 138.634 133.116 137.544C133.691 136.454 133.979 135.21 133.979 133.814C133.979 132.418 133.691 131.175 133.116 130.084C132.54 128.995 131.775 128.155 130.819 127.567C129.864 126.979 128.847 126.686 127.769 126.686C126.691 126.686 125.675 126.979 124.719 127.567C123.764 128.155 123.004 128.988 122.441 130.066C121.877 131.144 121.596 132.394 121.596 133.814C121.596 135.235 121.877 136.484 122.441 137.562C123.004 138.64 123.764 139.473 124.719 140.061C125.675 140.648 126.691 140.942 127.769 140.942C128.847 140.942 129.864 140.648 130.819 140.061ZM118.619 124.444H121.596V127.237H121.743C122.306 126.281 123.158 125.479 124.297 124.83C125.436 124.181 126.716 123.856 128.137 123.856C129.802 123.856 131.321 124.285 132.693 125.142C134.065 126 135.143 127.188 135.927 128.706C136.711 130.226 137.103 131.928 137.103 133.814C137.103 135.725 136.711 137.433 135.927 138.94C135.143 140.446 134.065 141.629 132.693 142.486C131.321 143.343 129.802 143.772 128.137 143.772C126.716 143.772 125.436 143.447 124.297 142.798C123.158 142.149 122.306 141.359 121.743 140.428H121.596L121.743 143V151.121H118.619V124.444Z" fill="#676C72"/>
<path d="M154.484 131.83C154.434 131.046 154.214 130.262 153.822 129.478C153.43 128.694 152.812 128.033 151.966 127.494C151.121 126.955 150.061 126.686 148.788 126.686C147.318 126.686 146.074 127.157 145.058 128.1C144.041 129.043 143.374 130.287 143.055 131.83H154.484ZM144.268 142.486C142.847 141.629 141.738 140.447 140.943 138.94C140.146 137.433 139.748 135.737 139.748 133.851C139.748 132.038 140.121 130.373 140.869 128.854C141.616 127.335 142.675 126.122 144.048 125.216C145.419 124.31 147.011 123.856 148.825 123.856C150.662 123.856 152.254 124.267 153.602 125.087C154.949 125.908 155.984 127.041 156.707 128.486C157.429 129.932 157.791 131.585 157.791 133.447C157.791 133.814 157.754 134.133 157.68 134.402H142.872C142.945 135.823 143.288 137.023 143.901 138.003C144.513 138.983 145.291 139.718 146.234 140.208C147.177 140.698 148.163 140.943 149.192 140.943C151.593 140.943 153.442 139.816 154.741 137.562L157.386 138.848C156.578 140.368 155.481 141.567 154.098 142.449C152.713 143.331 151.041 143.772 149.082 143.772C147.293 143.772 145.689 143.343 144.268 142.486Z" fill="#676C72"/>
<path d="M161.428 124.444H164.404V127.457H164.552C164.919 126.429 165.629 125.571 166.683 124.885C167.737 124.2 168.838 123.856 169.989 123.856C170.848 123.856 171.582 123.991 172.195 124.261V127.604C171.41 127.213 170.529 127.016 169.55 127.016C168.642 127.016 167.81 127.274 167.051 127.79C166.29 128.305 165.684 128.999 165.231 129.871C164.779 130.742 164.552 131.681 164.552 132.688V143.184H161.428V124.444Z" fill="#676C72"/>
<path d="M184.946 141.898C183.231 140.649 182.055 138.897 181.418 136.643L184.394 135.431C184.811 136.999 185.583 138.285 186.709 139.289C187.836 140.294 189.158 140.796 190.678 140.796C192.196 140.796 193.483 140.386 194.537 139.565C195.589 138.744 196.117 137.624 196.117 136.202C196.117 134.978 195.669 133.967 194.775 133.171C193.881 132.375 192.418 131.634 190.383 130.948L188.73 130.36C186.868 129.699 185.35 128.829 184.174 127.751C182.998 126.673 182.41 125.179 182.41 123.268C182.41 122.019 182.754 120.861 183.439 119.796C184.125 118.73 185.08 117.879 186.305 117.242C187.529 116.605 188.901 116.286 190.421 116.286C191.939 116.286 193.262 116.568 194.389 117.132C195.516 117.695 196.417 118.381 197.09 119.189C197.764 119.998 198.235 120.794 198.505 121.578L195.565 122.827C195.321 121.921 194.762 121.1 193.894 120.365C193.024 119.63 191.879 119.263 190.457 119.263C189.11 119.263 187.958 119.643 187.003 120.402C186.047 121.162 185.57 122.117 185.57 123.268C185.57 124.297 185.974 125.136 186.783 125.785C187.591 126.435 188.816 127.041 190.457 127.604L192.185 128.192C194.413 129 196.153 130.011 197.402 131.224C198.652 132.436 199.277 134.084 199.277 136.166C199.277 137.856 198.841 139.277 197.972 140.428C197.103 141.58 196.006 142.425 194.684 142.964C193.361 143.502 192.001 143.772 190.605 143.772C188.546 143.772 186.66 143.147 184.946 141.898Z" fill="#676C72"/>
<path d="M207.415 143.398C206.767 143.149 206.221 142.812 205.781 142.388C205.289 141.914 204.923 141.365 204.679 140.742C204.433 140.118 204.31 139.357 204.31 138.459V127.273H201.04V124.444H204.31V119.153H207.435V124.444H211.991V127.273H207.435V137.714C207.435 138.766 207.63 139.542 208.023 140.043C208.487 140.594 209.161 140.869 210.043 140.869C210.753 140.869 211.44 140.661 212.101 140.245V143.294C211.733 143.465 211.359 143.588 210.981 143.662C210.6 143.735 210.116 143.772 209.528 143.772C208.769 143.772 208.065 143.647 207.415 143.398Z" fill="#676C72"/>
<path d="M217.41 141.788C216.223 140.465 215.628 138.616 215.628 136.239V124.444H218.752V135.762C218.752 137.55 219.156 138.861 219.964 139.693C220.772 140.526 221.862 140.943 223.235 140.943C224.287 140.943 225.226 140.661 226.047 140.097C226.866 139.534 227.503 138.799 227.957 137.893C228.41 136.987 228.636 136.031 228.636 135.027V124.444H231.759V143.184H228.783V140.465H228.636C228.122 141.396 227.301 142.18 226.175 142.817C225.048 143.453 223.847 143.772 222.574 143.772C220.319 143.772 218.599 143.111 217.41 141.788Z" fill="#676C72"/>
<path d="M247.579 140.061C248.522 139.473 249.281 138.64 249.858 137.562C250.433 136.484 250.721 135.235 250.721 133.814C250.721 132.394 250.433 131.144 249.858 130.066C249.281 128.988 248.522 128.155 247.579 127.567C246.636 126.979 245.613 126.686 244.51 126.686C243.432 126.686 242.417 126.979 241.461 127.567C240.505 128.155 239.739 128.995 239.164 130.084C238.589 131.175 238.301 132.418 238.301 133.814C238.301 135.21 238.589 136.454 239.164 137.544C239.739 138.634 240.505 139.473 241.461 140.061C242.417 140.649 243.432 140.943 244.51 140.943C245.613 140.943 246.636 140.649 247.579 140.061ZM239.606 142.486C238.245 141.629 237.174 140.447 236.39 138.94C235.605 137.433 235.214 135.725 235.214 133.814C235.214 131.928 235.605 130.226 236.39 128.706C237.174 127.188 238.245 126 239.606 125.142C240.964 124.285 242.477 123.856 244.144 123.856C245.589 123.856 246.875 124.181 248.001 124.83C249.128 125.479 249.987 126.281 250.575 127.237H250.721L250.575 124.628V116.875H253.697V143.184H250.721V140.428H250.575C249.987 141.359 249.128 142.15 248.001 142.798C246.875 143.447 245.589 143.772 244.144 143.772C242.477 143.772 240.964 143.343 239.606 142.486Z" fill="#676C72"/>
<path d="M271.887 131.83C271.838 131.046 271.617 130.262 271.226 129.478C270.833 128.694 270.214 128.033 269.371 127.494C268.525 126.955 267.465 126.686 266.191 126.686C264.722 126.686 263.477 127.157 262.461 128.1C261.444 129.043 260.776 130.287 260.459 131.83H271.887ZM261.671 142.486C260.25 141.629 259.141 140.447 258.346 138.94C257.55 137.433 257.152 135.737 257.152 133.851C257.152 132.038 257.525 130.373 258.273 128.854C259.019 127.335 260.079 126.122 261.451 125.216C262.822 124.31 264.415 123.856 266.228 123.856C268.066 123.856 269.657 124.267 271.004 125.087C272.351 125.908 273.387 127.041 274.111 128.486C274.832 129.932 275.194 131.585 275.194 133.447C275.194 133.814 275.158 134.133 275.083 134.402H260.275C260.348 135.823 260.692 137.023 261.304 138.003C261.917 138.983 262.694 139.718 263.637 140.208C264.58 140.698 265.567 140.943 266.595 140.943C268.996 140.943 270.845 139.816 272.145 137.562L274.79 138.848C273.982 140.368 272.884 141.567 271.501 142.449C270.117 143.331 268.445 143.772 266.486 143.772C264.697 143.772 263.091 143.343 261.671 142.486Z" fill="#676C72"/>
<path d="M278.831 124.444H281.807V127.2H281.956C282.469 126.269 283.29 125.479 284.417 124.83C285.544 124.181 286.745 123.856 288.018 123.856C290.271 123.856 291.993 124.512 293.18 125.822C294.369 127.133 294.962 128.915 294.962 131.169V143.184H291.84V131.646C291.84 129.907 291.423 128.646 290.59 127.861C289.756 127.078 288.618 126.686 287.173 126.686C286.168 126.686 285.267 126.968 284.472 127.531C283.676 128.095 283.057 128.835 282.617 129.754C282.175 130.673 281.956 131.634 281.956 132.638V143.184H278.831V124.444Z" fill="#676C72"/>
<path d="M303.617 143.398C302.967 143.149 302.423 142.812 301.981 142.388C301.491 141.914 301.123 141.365 300.879 140.742C300.634 140.118 300.512 139.357 300.512 138.459V127.273H297.241V124.444H300.512V119.153H303.635V124.444H308.192V127.273H303.635V137.714C303.635 138.766 303.83 139.542 304.223 140.043C304.689 140.594 305.363 140.869 306.244 140.869C306.954 140.869 307.64 140.661 308.301 140.245V143.294C307.935 143.465 307.56 143.588 307.181 143.662C306.801 143.735 306.317 143.772 305.729 143.772C304.97 143.772 304.265 143.647 303.617 143.398Z" fill="#676C72"/>
<path d="M325.793 141.971C323.711 140.771 322.075 139.124 320.888 137.029C319.699 134.935 319.106 132.601 319.106 130.029C319.106 127.457 319.699 125.124 320.888 123.029C322.075 120.935 323.711 119.288 325.793 118.087C327.874 116.887 330.191 116.286 332.738 116.286C334.698 116.286 336.491 116.66 338.122 117.407C339.751 118.155 341.165 119.214 342.365 120.586L340.124 122.754C339.119 121.554 338.024 120.672 336.835 120.108C335.647 119.545 334.281 119.263 332.738 119.263C330.828 119.263 329.075 119.71 327.483 120.604C325.89 121.499 324.623 122.76 323.68 124.389C322.737 126.018 322.266 127.898 322.266 130.029C322.266 132.16 322.737 134.041 323.68 135.67C324.623 137.299 325.89 138.561 327.483 139.455C329.075 140.349 330.828 140.796 332.738 140.796C335.923 140.796 338.63 139.485 340.858 136.864L343.137 139.069C341.912 140.514 340.406 141.659 338.617 142.504C336.828 143.349 334.869 143.772 332.738 143.772C330.191 143.772 327.874 143.172 325.793 141.971Z" fill="#676C72"/>
<path d="M346.628 116.874H349.752V143.184H346.628V116.874Z" fill="#676C72"/>
<path d="M356.017 141.788C354.828 140.465 354.235 138.616 354.235 136.239V124.444H357.357V135.762C357.357 137.55 357.763 138.861 358.571 139.693C359.379 140.526 360.469 140.943 361.842 140.943C362.894 140.943 363.831 140.661 364.652 140.097C365.473 139.534 366.11 138.799 366.562 137.893C367.015 136.987 367.243 136.031 367.243 135.027V124.444H370.366V143.184H367.39V140.465H367.243C366.729 141.396 365.908 142.18 364.78 142.817C363.653 143.453 362.453 143.772 361.179 143.772C358.926 143.772 357.204 143.111 356.017 141.788Z" fill="#676C72"/>
<path d="M387.196 140.061C388.15 139.473 388.916 138.634 389.493 137.544C390.068 136.454 390.356 135.21 390.356 133.814C390.356 132.418 390.068 131.175 389.493 130.084C388.916 128.995 388.15 128.155 387.196 127.567C386.24 126.979 385.223 126.686 384.147 126.686C383.068 126.686 382.052 126.979 381.096 127.567C380.141 128.155 379.38 128.988 378.817 130.066C378.253 131.144 377.973 132.394 377.973 133.814C377.973 135.235 378.253 136.484 378.817 137.562C379.38 138.64 380.141 139.473 381.096 140.061C382.052 140.649 383.068 140.943 384.147 140.943C385.223 140.943 386.24 140.649 387.196 140.061ZM380.674 142.798C379.533 142.15 378.683 141.359 378.12 140.428H377.973V143.184H374.995V116.875H378.12V124.628L377.973 127.237H378.12C378.683 126.281 379.533 125.479 380.674 124.83C381.812 124.181 383.093 123.856 384.513 123.856C386.179 123.856 387.698 124.285 389.069 125.142C390.442 126 391.519 127.188 392.304 128.706C393.088 130.226 393.48 131.928 393.48 133.814C393.48 135.725 393.088 137.433 392.304 138.94C391.519 140.447 390.442 141.629 389.069 142.486C387.698 143.343 386.179 143.772 384.513 143.772C383.093 143.772 381.812 143.447 380.674 142.798Z" fill="#676C72"/>
<path d="M398.44 142.357C397.093 141.415 396.137 140.208 395.573 138.738L398.367 137.488C398.831 138.616 399.523 139.485 400.442 140.097C401.361 140.71 402.372 141.016 403.475 141.016C404.65 141.016 405.655 140.777 406.487 140.3C407.319 139.822 407.736 139.142 407.736 138.26C407.736 137.476 407.406 136.846 406.744 136.368C406.083 135.89 405.042 135.48 403.622 135.137L401.343 134.549C399.849 134.182 398.624 133.557 397.668 132.675C396.713 131.793 396.235 130.654 396.235 129.258C396.235 128.18 396.56 127.231 397.209 126.41C397.859 125.589 398.722 124.958 399.8 124.517C400.877 124.076 402.042 123.856 403.291 123.856C404.931 123.856 406.396 124.211 407.683 124.922C408.968 125.632 409.88 126.625 410.419 127.898L407.7 129.147C406.866 127.482 405.386 126.649 403.254 126.649C402.226 126.649 401.325 126.887 400.553 127.365C399.781 127.843 399.395 128.449 399.395 129.184C399.395 129.87 399.665 130.428 400.204 130.856C400.742 131.285 401.551 131.634 402.63 131.903L405.348 132.601C407.186 133.067 408.569 133.759 409.5 134.678C410.432 135.596 410.896 136.717 410.896 138.04C410.896 139.191 410.566 140.202 409.904 141.071C409.243 141.941 408.349 142.609 407.223 143.074C406.096 143.539 404.847 143.772 403.475 143.772C401.465 143.772 399.787 143.3 398.44 142.357Z" fill="#676C72"/>
<path d="M170.721 39.0053L193.949 25.5942C199.417 22.4385 201.289 15.448 198.134 9.98168C194.977 4.5155 187.987 2.64174 182.521 5.79825L142.382 28.972L170.721 39.0053Z" fill="#EA4335"/>
<path d="M188.225 73.4739C192.175 73.4739 196.016 71.4238 198.134 67.7574C201.289 62.2911 199.417 55.3006 193.951 52.1447L153.811 28.9716C148.344 25.8138 141.355 27.6889 138.199 33.1551C135.042 38.622 136.915 45.6118 142.382 48.7677L182.521 71.9406C184.321 72.98 186.285 73.4739 188.225 73.4739Z" fill="#4285F4"/>
<path d="M228.151 73.4739C230.091 73.4739 232.056 72.9801 233.856 71.9407L273.994 48.7678L246.015 38.5261L222.426 52.1447C216.959 55.3007 215.086 62.2911 218.243 67.7574C220.36 71.4238 224.201 73.4739 228.151 73.4739Z" fill="#FBBC04"/>
<path d="M268.268 50.3012C272.218 50.3012 276.061 48.2518 278.176 44.5845C281.333 39.1182 279.46 32.1284 273.993 28.972L233.856 5.79835C228.389 2.64246 221.399 4.51474 218.243 9.98166C215.086 15.448 216.959 22.4378 222.426 25.5942L262.565 48.7679C264.363 49.8067 266.329 50.3012 268.268 50.3012Z" fill="#0F9D58"/>
</svg>
