<svg width="331" height="162" viewBox="0 0 331 162" fill="none" xmlns="http://www.w3.org/2000/svg">
<path d="M179.951 24.3482L183.346 24.4095L192.568 14.8776L193.013 10.8385C185.684 4.10045 176.04 0 165.485 0C146.376 0 130.245 13.4392 125.468 31.6444C126.477 30.9175 128.628 31.4603 128.628 31.4603L147.061 28.326C147.061 28.326 148.011 26.7005 148.485 26.8017C152.442 22.3279 157.901 19.5831 163.749 19.1271C169.597 18.6712 175.393 20.5385 179.954 24.3482H179.951Z" fill="#EA4335"/>
<path d="M205.559 31.6782C203.44 23.6205 199.092 16.3769 193.049 10.8355L179.987 24.336C182.667 26.5628 184.831 29.3827 186.317 32.588C187.804 35.7933 188.576 39.3025 188.577 42.8571V45.2401C194.933 45.2401 200.09 50.5857 200.09 57.1397C200.09 63.6937 194.918 69.0393 188.577 69.0393H165.545L163.239 71.4315V85.7171L165.545 88.0878H188.577C196.509 88.066 204.11 84.798 209.717 78.9988C215.324 73.1996 218.481 65.3412 218.497 57.1427C218.485 46.6049 213.345 37.2692 205.529 31.6782H205.559Z" fill="#4285F4"/>
<path d="M142.456 88.1091H165.482V69.0575H142.456C140.821 69.0583 139.204 68.6954 137.717 67.9933L134.393 69.0452L125.171 78.5772L124.364 81.7974C129.553 85.9152 135.917 88.1372 142.459 88.1153L142.456 88.1091Z" fill="#34A853"/>
<path d="M142.456 26.1976C134.516 26.2105 126.905 29.4763 121.29 35.2791C115.676 41.0819 112.516 48.9485 112.503 57.1549C112.503 61.9335 113.575 66.6471 115.635 70.9255C117.694 75.2039 120.685 78.9305 124.373 81.8129L137.726 68.0118C135.703 67.0712 133.986 65.5468 132.782 63.6219C131.578 61.697 130.937 59.4534 130.936 57.1611C130.936 50.5918 136.109 45.2615 142.45 45.2615C144.667 45.2655 146.836 45.9294 148.698 47.1737C150.559 48.4181 152.035 50.1904 152.948 52.2786L166.301 38.4775C160.823 31.0249 152.177 26.2098 142.444 26.2098L142.456 26.1976Z" fill="#FBBC05"/>
<path d="M23.068 148.144C16.7773 148.144 11.3768 145.844 6.82487 141.243C2.27298 136.643 0 131.11 0 124.657C0 118.205 2.27001 112.672 6.82487 108.072C11.3797 103.471 16.7862 101.168 23.068 101.168C25.9498 101.125 28.811 101.675 31.4851 102.786C34.1592 103.897 36.5926 105.547 38.6436 107.639L34.2608 112.169C31.2617 109.172 27.2366 107.523 23.0651 107.584C18.5251 107.584 14.6675 109.24 11.5043 112.574C9.96552 114.153 8.75227 116.038 7.93781 118.116C7.12334 120.193 6.72456 122.42 6.76552 124.661C6.76552 129.402 8.3382 133.423 11.5043 136.744C12.9922 138.358 14.788 139.634 16.778 140.493C18.768 141.352 20.9089 141.775 23.0651 141.734C27.6882 141.734 31.5071 140.201 34.5487 137.029C36.3291 135.189 37.516 132.429 37.9314 128.948H23.0769V122.532H43.9788C44.2014 123.673 44.2756 124.986 44.2756 126.519C44.2756 132.825 42.4863 137.824 38.8958 141.532C34.8246 145.933 29.5487 148.125 23.0354 148.125L23.068 148.144ZM71.6433 143.85C68.7946 146.733 65.3229 148.144 61.222 148.144C57.1211 148.144 53.6434 146.702 50.8007 143.85C47.958 140.998 46.5337 137.37 46.5337 133.055C46.5337 128.74 47.958 125.142 50.8007 122.259C53.6434 119.376 57.1211 117.965 61.222 117.965C65.3229 117.965 68.8006 119.407 71.6433 122.259C74.486 125.111 75.9103 128.749 75.9103 133.055C75.9103 137.361 74.486 140.967 71.6433 143.85ZM55.4001 139.618C56.1404 140.449 57.0414 141.111 58.0449 141.559C59.0483 142.008 60.1318 142.234 61.225 142.222C63.4801 142.222 65.4208 141.357 67.0498 139.615C68.6789 137.873 69.489 135.689 69.489 133.052C69.489 130.383 68.6878 128.181 67.0765 126.458C65.4653 124.734 63.5217 123.882 61.225 123.882C60.1295 123.864 59.0428 124.084 58.0348 124.528C57.0269 124.972 56.1202 125.629 55.3734 126.458C53.7621 128.175 52.9609 130.371 52.9609 133.052C52.9609 135.683 53.771 137.876 55.4001 139.615V139.618ZM103.687 143.85C100.839 146.733 97.3671 148.144 93.2662 148.144C89.1654 148.144 85.6877 146.702 82.845 143.85C80.0022 140.998 78.5779 137.37 78.5779 133.055C78.5779 128.74 80.0022 125.142 82.845 122.259C85.6877 119.376 89.1654 117.965 93.2662 117.965C97.3671 117.965 100.845 119.407 103.687 122.259C106.53 125.111 107.955 128.749 107.955 133.055C107.955 137.361 106.53 140.967 103.687 143.85ZM87.4443 139.618C88.1846 140.449 89.0857 141.111 90.0891 141.559C91.0926 142.008 92.176 142.234 93.2692 142.222C95.5244 142.222 97.465 141.357 99.0941 139.615C100.723 137.873 101.533 135.689 101.533 133.052C101.533 130.383 100.732 128.181 99.1208 126.458C97.5095 124.734 95.5659 123.882 93.2692 123.882C92.1738 123.864 91.087 124.084 90.079 124.528C89.0711 124.972 88.1645 125.629 87.4176 126.458C85.8064 128.175 85.0052 130.371 85.0052 133.052C85.0052 135.683 85.8153 137.876 87.4443 139.615V139.618ZM124.753 161.761C121.503 161.761 118.767 160.859 116.551 159.062C114.334 157.265 112.747 155.185 111.785 152.812L117.388 150.41C117.975 151.864 118.871 153.125 120.156 154.195C121.441 155.265 122.945 155.796 124.761 155.796C127.201 155.796 129.118 155.029 130.497 153.505C131.877 151.981 132.574 149.775 132.574 146.911V144.764H132.352C130.572 147.055 127.969 148.205 124.649 148.205C120.916 148.205 117.646 146.733 114.836 143.795C113.471 142.406 112.393 140.745 111.669 138.912C110.945 137.08 110.588 135.114 110.622 133.134C110.588 131.143 110.943 129.164 111.668 127.318C112.392 125.472 113.469 123.796 114.836 122.391C117.64 119.438 120.919 117.953 124.649 117.953C126.31 117.953 127.818 118.275 129.165 118.928C130.512 119.582 131.577 120.382 132.352 121.33H132.574V118.895H138.675V146.058C138.675 151.333 137.376 155.271 134.764 157.897C132.153 160.503 128.824 161.822 124.756 161.822L124.753 161.761ZM125.198 142.219C126.256 142.238 127.304 142.014 128.269 141.564C129.233 141.114 130.088 140.448 130.773 139.615C132.269 137.876 133.017 135.711 133.017 133.107C133.017 130.475 132.269 128.273 130.773 126.513C130.092 125.673 129.238 125.001 128.273 124.546C127.309 124.09 126.258 123.863 125.198 123.882C122.943 123.882 121.02 124.765 119.435 126.513C117.851 128.261 117.049 130.463 117.049 133.107C117.049 135.701 117.842 137.876 119.435 139.615C121.029 141.354 122.945 142.222 125.198 142.222V142.219ZM149.536 102.763V147.233H143.106V102.763H149.536ZM167.162 148.141C163.019 148.141 159.565 146.687 156.794 143.786C154.022 140.884 152.634 137.296 152.634 133.015C152.634 128.586 153.969 124.949 156.651 122.127C157.91 120.759 159.429 119.675 161.114 118.944C162.798 118.213 164.611 117.852 166.438 117.883C168.209 117.883 169.859 118.214 171.372 118.886C172.779 119.481 174.06 120.357 175.141 121.462C176.043 122.389 176.843 123.417 177.527 124.526C178.092 125.473 178.574 126.471 178.969 127.507L179.636 129.224L160.07 137.603C161.553 140.658 163.927 142.188 167.168 142.188C170.123 142.188 172.53 140.799 174.372 138.008L179.357 141.449C178.245 143.166 176.678 144.715 174.645 146.089C172.613 147.463 170.111 148.144 167.156 148.144L167.162 148.141ZM159.013 132.561L172.07 126.948C171.696 125.992 171.019 125.219 169.993 124.63C168.96 124.032 167.793 123.727 166.61 123.747C164.723 123.747 162.96 124.544 161.319 126.148C159.678 127.752 158.886 129.896 158.96 132.564L159.013 132.561ZM213.405 148.141C207.559 148.141 202.663 146.098 198.71 142.007C194.758 137.916 192.776 132.822 192.776 126.709C192.776 120.597 194.752 115.497 198.71 111.411C202.669 107.326 207.562 105.278 213.405 105.278C219.39 105.278 224.253 107.517 227.983 111.979L224.437 115.536C221.767 112.059 218.057 110.323 213.399 110.323C209.066 110.323 205.428 111.832 202.42 114.853C199.411 117.873 197.957 121.821 197.957 126.709C197.957 131.598 199.44 135.554 202.42 138.578C205.399 141.602 209.046 143.108 213.399 143.108C218.164 143.108 222.232 141.121 225.565 137.152L229.111 140.817C227.253 143.109 224.92 144.94 222.286 146.175C219.492 147.503 216.447 148.176 213.372 148.144L213.405 148.141ZM238.793 147.233H233.689V106.207H238.793V147.233ZM247.111 122.514C249.737 119.671 253.045 118.242 257.146 118.242C261.247 118.242 264.555 119.668 267.182 122.514C269.808 125.36 271.119 128.954 271.119 133.202C271.119 137.45 269.814 141.044 267.182 143.89C264.55 146.736 261.247 148.162 257.146 148.162C253.045 148.162 249.737 146.736 247.111 143.89C244.484 141.044 243.173 137.45 243.173 133.202C243.173 128.954 244.479 125.36 247.111 122.514ZM250.909 140.556C252.689 142.406 254.748 143.335 257.14 143.335C259.532 143.335 261.591 142.406 263.372 140.556C265.152 138.707 266.007 136.247 266.007 133.196C266.007 130.144 265.125 127.681 263.372 125.835C261.618 123.989 259.532 123.057 257.14 123.057C254.748 123.057 252.689 123.986 250.909 125.835C249.128 127.685 248.274 130.144 248.274 133.196C248.274 136.247 249.155 138.71 250.909 140.556ZM299.336 147.233H294.454V143.338H294.232C293.46 144.672 292.273 145.813 290.686 146.712C289.098 147.61 287.422 148.122 285.641 148.122C282.238 148.122 279.665 147.055 277.911 144.911C276.158 142.768 275.276 139.903 275.276 136.315V119.122H280.38V135.45C280.38 140.688 282.615 143.301 287.086 143.301C288.087 143.323 289.079 143.095 289.976 142.637C290.874 142.179 291.652 141.504 292.244 140.67C293.563 138.941 294.267 136.796 294.238 134.594V119.122H299.342V147.205L299.336 147.233ZM316.629 148.144C313.119 148.144 310.083 146.709 307.537 143.844C304.991 140.98 303.715 137.428 303.715 133.183C303.715 128.939 304.991 125.387 307.537 122.523C310.083 119.658 313.122 118.223 316.629 118.223C318.694 118.223 320.558 118.683 322.208 119.594C323.858 120.505 325.086 121.655 325.896 123.035H326.119L325.896 119.14V106.198H331V147.233H326.119V143.338H325.896C325.086 144.709 323.858 145.859 322.208 146.779C320.561 147.681 318.697 148.141 316.629 148.141V148.144ZM317.46 143.329C318.612 143.345 319.753 143.108 320.81 142.634C321.866 142.16 322.813 141.459 323.588 140.578C325.27 138.747 326.11 136.278 326.11 133.217C326.11 130.156 325.273 127.657 323.588 125.857C322.813 124.976 321.866 124.275 320.81 123.801C319.753 123.326 318.612 123.089 317.46 123.106C315.092 123.106 313.06 124.035 311.359 125.884C309.659 127.734 308.813 130.193 308.813 133.245C308.813 136.296 309.659 138.759 311.359 140.605C312.127 141.489 313.068 142.194 314.12 142.673C315.172 143.153 316.311 143.395 317.46 143.384V143.329Z" fill="#5F6368"/>
</svg>
